<svg xmlns="http://www.w3.org/2000/svg" viewBox="0 0 512 512" width="512" height="512">
  <defs>
    <linearGradient id="bgGrad" x1="0%" y1="0%" x2="100%" y2="100%">
      <stop offset="0%" stop-color="#0284c7" />
      <stop offset="100%" stop-color="#090d16" />
    </linearGradient>
    <linearGradient id="goldGrad" x1="0%" y1="0%" x2="100%" y2="100%">
      <stop offset="0%" stop-color="#38bdf8" />
      <stop offset="50%" stop-color="#60a5fa" />
      <stop offset="100%" stop-color="#bfdbfe" />
    </linearGradient>
  </defs>
  <rect width="512" height="512" rx="128" fill="url(#bgGrad)" />
  <rect x="20" y="20" width="472" height="472" rx="112" fill="none" stroke="#38bdf8" stroke-width="10" stroke-opacity="0.5" />
  
  <path d="M120 140 C120 120 145 105 256 105 C367 105 392 120 392 140 C392 160 365 170 300 170 L300 375 C300 405 285 415 256 415 C227 415 212 405 212 375 L212 170 C147 170 120 160 120 140 Z" fill="url(#goldGrad)" />
  <path d="M365 95 L380 130 L415 145 L380 160 L365 195 L350 160 L315 145 L350 130 Z" fill="#ffffff" opacity="0.95" />
</svg>
